<svg xmlns="http://www.w3.org/2000/svg" data-name="Layer 1" viewBox="0 0 210 210">
  <defs>
    <linearGradient id="a" x1="-201.7" x2="-200.7" y1="500.9" y2="500.9" gradientTransform="matrix(0 -175.6 -175.6 0 88051.7 -35221.7)" gradientUnits="userSpaceOnUse">
      <stop offset="0" stop-color="#c44c2a"/>
      <stop offset="1" stop-color="#eb7d47"/>
    </linearGradient>
    <linearGradient id="b" x1="-198.4" x2="-197.4" y1="503.1" y2="503.1" gradientTransform="matrix(0 176 176 0 -88429.8 34916)" gradientUnits="userSpaceOnUse">
      <stop offset="0" stop-color="#ed8c5c"/>
      <stop offset="1" stop-color="#ca6431"/>
    </linearGradient>
  </defs>
  <path fill="#c44d2a" fill-rule="evenodd" d="M38.5 38.5c58.7-58.7 102.9-39.2 142.1 0 39.2 39.2 39.2 102.9 0 142.1s-102.9 39.2-142.1 0c-39.3-39.2-58.7-83.5 0-142.1Z"/>
  <path fill="#db693b" fill-rule="evenodd" d="M68.3 195.7c7.2 2.4 14.6 4 22.1 4.8l9 9c-7.5-.8-14.9-2.4-22.1-4.8l-9-9Zm44.4 14.3-9-9c5.3-.2 10.5-.7 15.6-1.7l9 9c-5.2 1-10.4 1.5-15.6 1.7Zm25.9-4.3-9-9c4.3-1.3 8.5-2.9 12.6-4.7l9 9c-4.1 1.9-8.3 3.4-12.6 4.7Zm21-9-9-9c3.6-2.1 7.1-4.4 10.4-6.9l9 9c-3.3 2.5-6.8 4.8-10.4 6.9Zm17.5-12.8-9-9c3-2.7 5.9-5.7 8.6-8.8l9 9c-2.7 3.1-5.5 6-8.6 8.8Zm14.2-15.9-9-9c2.4-3.4 4.7-7 6.7-10.6l9 9c-2 3.7-4.2 7.2-6.7 10.6Zm10.8-19.3-9-9c1.8-4.2 3.3-8.5 4.4-12.9l9 9c-1.2 4.4-2.7 8.7-4.4 12.9Zm6.7-23.4-9-9c.8-5.2 1.2-10.5 1.2-15.8v-.3l9 9c0 5.4-.4 10.8-1.2 16.1Zm.2-29.9-9-9c-1.1-8.1-3.3-16.1-6.4-23.7l9 9c3.1 7.6 5.2 15.5 6.4 23.7Z"/>
  <circle cx="100.5" cy="100.5" r="100.5" fill="#ed8c5c"/>
  <path fill="#fca174" d="M133.7 5.6c8.2 2.9 16.1 6.8 23.3 11.7L.2 107.8c-.7-8.7 0-17.5 1.5-26l132-76.2Zm36.7 22.6c6.6 6.4 12.4 13.7 17.3 22.1 3.5 6.1 6.3 12.4 8.4 18.8L25.6 167.6C21 162.5 17 157 13.5 150.8c-4.8-8.3-8.2-17.1-10.5-26l167.3-96.7Zm30.4 65.1c.7 8.7 0 17.5-1.5 26L67.4 195.4c-8.2-2.9-16.1-6.8-23.3-11.7l156.7-90.4Z"/>
  <path fill="url(#a)" fill-rule="evenodd" d="M100.5 188.3c48.3 0 87.8-39.4 87.8-87.8s-39.4-87.8-87.8-87.8-87.8 39.4-87.8 87.8 39.5 87.8 87.8 87.8Z"/>
  <path fill="#c63" d="M100.5 185.7c46.9 0 85.1-38.2 85.1-85.1s-38.2-85.1-85.1-85.1-85.1 38.2-85.1 85.1 38.2 85.1 85.1 85.1Z"/>
  <circle cx="100.5" cy="100.5" r="85.1" fill="url(#b)"/>
  <path fill="#fca174" fill-rule="evenodd" d="M60.9 42.6c.4-.3.7-.5 1.1-.7.8-1.1 1.7-2 2.7-2.8.3.1.6.3.9.4 2.4-1.4 4.8-2.7 7.3-3.8-1.4-.2-2.9-.7-4.2-1.5-3.1-2-4.8-5.4-4.6-8.9 3.1-1.5 6.9-1.5 10 .5 2.6 1.7 4.3 4.5 4.5 7.6 3.1-1 6.4-1.8 9.6-2.4-1.3-.5-2.4-1.3-3.3-2.3-2.3-2.6-2.9-6.1-1.9-9.1 3.1-.7 6.5.3 8.9 2.9 2 2.2 2.7 5.1 2.2 7.8 4.3-.3 8.6-.2 12.8.3-1-.8-1.9-1.8-2.5-3-1.6-3-1.3-6.6.4-9.3 3.2.1 6.2 2 7.9 5 1.3 2.6 1.4 5.6.2 8.2 3.6.7 7.2 1.8 10.7 3.1-.7-1-1.2-2.1-1.6-3.2-.9-3.3.1-6.7 2.4-9 3.1.8 5.6 3.3 6.6 6.6.7 2.8.1 5.8-1.6 8.1 3.2 1.5 6.2 3.2 9.2 5.2-.2-.8-.4-1.7-.4-2.6.1-3.5 1.9-6.4 4.7-8 2.8 1.6 4.6 4.6 4.6 8.1 0 2.8-1.2 5.2-3.1 6.9 3.3 2.6 6.3 5.5 9.1 8.7 0-1.2 0-2.3.5-3.5 1.2-3.3 3.9-5.6 7-6.2 2.2 2.3 3 5.9 1.8 9.1-1 2.6-2.9 4.6-5.2 5.6 2.2 2.9 4.1 5.9 5.8 9.1.2-1.1.6-2.2 1.2-3.2 1.7-3 4.9-4.5 8.1-4.4 1.6 2.8 1.6 6.3-.2 9.4-1.4 2.4-3.7 3.8-6.2 4.3 2.2 5 3.8 10.2 4.9 15.6l-4.6 1.5c-1-4.9-2.4-9.7-4.3-14.4-1.6 1.4-3.7 2.2-6 2.2-3.4 0-6.4-1.8-8.1-4.6 1.6-2.8 4.6-4.7 8.1-4.7.9 0 1.9.1 2.7.4-1.4-2.6-3-5.2-4.7-7.6-1.3 1.8-3.2 3-5.3 3.5-3.3.8-6.7-.4-8.9-2.7.9-3.1 3.5-5.6 6.8-6.4 1-.2 2-.3 3-.2-2.3-2.7-4.8-5.2-7.5-7.6-.6 2.3-2.1 4.3-4.2 5.5-2.9 1.8-6.5 1.8-9.3.2 0-3.1 1.5-6.3 4.5-8.1 1.3-.8 2.8-1.3 4.3-1.4-2.8-2.1-5.8-4-8.9-5.7-.1 2.2-1 4.3-2.5 6-2.3 2.6-5.8 3.4-8.9 2.7-.9-3-.2-6.5 2.2-9 1-1.1 2.2-1.9 3.6-2.4-3.3-1.4-6.6-2.5-10.1-3.4.6 2.3.3 4.9-1.1 7.1-1.7 3.1-5 4.6-8.2 4.5-1.5-2.8-1.6-6.3.2-9.3.9-1.5 2.2-2.7 3.7-3.5-4.3-.7-8.7-1-13.1-.9 1.5 2.2 2 5.1 1.2 7.8-.9 3.4-3.6 5.8-6.7 6.5-2.3-2.4-3.2-5.8-2.2-9.1.5-2 1.8-3.7 3.3-4.9-4.4.5-8.7 1.4-12.9 2.8 2.1 1.8 3.3 4.4 3.2 7.2 0 3.4-2 6.4-4.8 7.9-2.7-1.6-4.5-4.7-4.4-8.1 0-2 .7-3.9 1.9-5.5-2.2.9-4.3 1.9-6.3 3 2.8 2 4.7 5.1 5.1 8.6.6 4.6-1.4 9-4.9 11.6-4-1.7-7-5.4-7.7-10-.3-2 0-4.1.7-6-1.1.8-2.3 1.6-3.3 2.5-.3 3.6-2.1 6.8-5 9-3.8 2.8-8.5 3.2-12.5 1.5-.5-4.3 1.2-8.8 5-11.6 1.7-1.3 3.8-2.1 5.9-2.4-2.4-1.6-3.9-4.1-4.1-6.8 2.6-1.9 6.1-2.4 9.3-.9 2.8 1.3 4.8 3.9 5.3 6.7Zm-3.7 2.5v.3c.2-.1.4-.3.5-.4-.2 0-.4 0-.6.1Z"/>
  <text fill="#fca174" font-family="Arial-BoldMT,Arial" font-size="60" font-weight="700" style="isolation:isolate" transform="rotate(15 -416.3 162.99)"><tspan x="0" y="0">{{annee}}</tspan></text>
</svg>
