<svg xmlns="http://www.w3.org/2000/svg" id="Layer_1" data-name="Layer 1" version="1.1" viewBox="0 0 210 210">
  <defs>
    <linearGradient id="linear-gradient" x1="-201.7" x2="-200.7" y1="500.9" y2="500.9" gradientTransform="matrix(0 -175.5 -175.5 0 88001.7 -35201.8)" gradientUnits="userSpaceOnUse">
      <stop offset="0" stop-color="#3e2217"/>
      <stop offset="1" stop-color="#7f462f"/>
    </linearGradient>
    <linearGradient id="linear-gradient-2" x1="-201.7" x2="-200.7" y1="500.8" y2="500.8" gradientTransform="matrix(0 -170.1 -170.1 0 85301.4 -34128.6)" gradientUnits="userSpaceOnUse">
      <stop offset="0" stop-color="#4e291e"/>
      <stop offset="1" stop-color="#5b2d20"/>
    </linearGradient>
    <style>
      .cls-2{fill:#80563e;stroke-width:0;fill-rule:evenodd}
    </style>
  </defs>
  <path fill="#371d15" fill-rule="evenodd" stroke-width="0" d="M208.1 89.8c6.3 31.8-2.8 66.2-27.5 90.8-39.2 39.2-102.9 39.2-142.1 0-5.6-5.6-10.8-11.3-15.4-17.1C3.8 139.1 98.7 102.8 159.5 89 141.5 76.2 69 13 88.7 8.4c8.2-2 16.2-7.7 24.2-7.6l11.3 5.6c.3.5.3 1.1.3 1.8 0 2.2-.2 4.4 0 6.6 0 1.6.4 3.1.8 4.5.4 1.1-.5 4.9.5 5.4 3 1.6 6 3.1 9.1 4.5.3.1.7.3 1 .4 2 .7 1.9 1.8 1 3.2-1.4 2.3-2.3 4.7-2.6 7.1v.6c-.2 1.2-.2 2.4 0 3.6.1 0 .2.2.1.2.2 1.7.8 3.4 1.7 5.1.6 1.1 1.3 2.1 2 3 .7.9 1.6 1.8 2.5 2.5.7.6 2.9-2 2.9-2l10.3 4.8c2 1 2.2 1.9 2.3 3.5 0 .3.1.7.1 1.1s0 1 .2 1.5c.5 3.2 1.7 6 3.7 8.2 1.7 1.9 3.9 3.4 6.7 4.4 2 .8 3.9 1.3 5.9 1.4 1.7 0 3.5 0 5.2-.4 2.2-.6-2.9-9.2-.8-10.8.3-.2 11.4 4.8 13.4 8.2.4.7.9 1.4 1.4 2 .4.5.9 1 1.4 1.5.2.2 4.1-1.9 4.4-1.7 7.5 4.1 8.5 4.2 9.2 7.4.3 1.3.9 3.2 1.3 5.8Z"/>
  <path fill="#6f3d29" fill-rule="evenodd" stroke-width="0" d="M68.3 195.7c7.2 2.4 14.6 4 22.1 4.8l9 9c-7.5-.8-14.9-2.4-22.1-4.8l-9-9Zm44.4 14.3-9-9c5.3-.2 10.5-.7 15.6-1.7l9 9c-5.2 1-10.4 1.5-15.6 1.7Zm25.9-4.3-9-9c4.3-1.3 8.5-2.9 12.6-4.7l9 9c-4.1 1.9-8.3 3.4-12.6 4.7Zm21-9-9-9c3.6-2.1 7.1-4.4 10.4-6.9l9 9c-3.3 2.5-6.8 4.8-10.4 6.9Zm17.5-12.8-9-9c3-2.7 5.9-5.7 8.6-8.8l9 9c-2.7 3.1-5.5 6-8.6 8.8Zm14.2-15.9-9-9c2.4-3.4 4.7-7 6.7-10.6l9 9c-2 3.7-4.2 7.2-6.7 10.6Zm10.8-19.3-9-9c1.8-4.2 3.3-8.5 4.4-12.9l9 9c-1.2 4.4-2.7 8.7-4.4 12.9Zm6.7-23.4-9-9c.8-5.2 1.2-10.5 1.2-15.8v-.3l9 9c0 5.4-.4 10.8-1.2 16.1Z"/>
  <path fill="#562d21" fill-rule="evenodd" stroke-width="0" d="M198.7 78.9c0-.3-.2-1-.4-1.6 0-.5-.6-.9-1.1-.8-1.8.3-3.6.5-5.4.3-2.8-.2-5.2-.9-7.3-2.2-1-.6-1.9-1.2-2.7-2s-1-1-1.4-1.5c-.5-.6-1-1.3-1.4-2-2-3.4-2.1-3.6-5.4-1.2-.3.2-.5.4-.8.6-2.1 1.6-4.2 2.6-6.4 3.2-1.7.4-3.5.5-5.2.4-2 0-3.9-.6-5.9-1.4-2.8-1-5-2.5-6.7-4.4-2-2.2-3.2-5-3.7-8.2-.1-.5-.2-1-.2-1.5s-.1-.8-.1-1.1c-.1-1.6-.2-2.8-2.1-2.8h-.6c-4 .2-7.6-.4-10.5-2-1.8-1-3.5-2.3-4.8-4-.7-.9-1.4-1.9-2-3-.9-1.7-1.5-3.4-1.7-5.1v-.2c-.2-1.2-.2-2.4 0-3.6v-.6c.4-2.4 1.3-4.8 2.7-7.1.9-1.4 1-2.5-1-3.2-.3-.1-.7-.3-1-.4-3.6-1.6-6.4-3.8-8.2-6.8-.6-.9-1-2-1.4-3.1-.4-1.4-.7-2.9-.8-4.5V2.5c0-.7 0-1.3-.3-1.8-11.5-1.4-23.5-.9-35.5 2-21.4 5-39.6 16.6-52.9 32.1-5.7 6.6-10.6 14-14.4 21.8-2.5 5.1-4.5 10.5-6.1 16 0 .2 0 .4-.2.5 0 .4-.2.8-.3 1.1-.3 1.1-.6 2.2-.8 3.3-1 4.1-1.7 8.2-2.1 12.4 0 .7 0 1.4-.2 2v1.7c-.3 1.1-.3 2.1-.4 3.1v3.7c0 2.6.1 5.2.3 7.8 0 .7 0 1.4.2 2.2 0 .6.1 1.1.2 1.6.1 1 .2 2 .4 2.9.3 2 .7 4.1 1.1 6.1.2.9.4 1.8.6 2.6 1.7 7.3 4.2 14.2 7.4 20.7l.9 1.8c.4.9.9 1.7 1.4 2.6 1.3 2.4 2.7 4.7 4.2 7 .3.5.6.9.9 1.4s.6.9.9 1.3c.3.5.6.9 1 1.3 1.5 2 3 4 4.6 5.9.1.1.2.2.2.3.1.1.1.2.2.2 2.3 2.7 4.8 5.2 7.4 7.7 2.7 2.5 5.5 4.9 8.5 7.1 3.2 2.4 6.5 4.5 9.9 6.5 11.8 6.8 25.1 11.3 38.9 12.9 3.6.4 7.2.6 10.9.6h.8c3.6 0 7.3-.2 10.9-.7 3.9-.5 7.8-1.1 11.7-2.1 9.8-2.3 18.9-6 27.1-10.8 3.4-2 6.7-4.2 9.9-6.5h.1c3-2.2 5.8-4.6 8.5-7.2 2.6-2.4 5-4.9 7.3-7.6 5.7-6.6 10.5-14 14.3-21.8 3.6-7.4 6.3-15.2 8-23.3 2.8-13.3 2.9-27.6-.2-42Z"/>
  <path d="M.3 92.4c.3-3.6.8-7.1 1.4-10.6L115 16.4c0 .1.2.3.2.4 1.8 3 4.6 5.2 8.2 6.8.3.1.7.3 1 .4 2 .7 1.9 1.8 1 3.2-1.4 2.3-2.3 4.7-2.6 7.1v.6c-.2.7-.2 1.5-.1 2.3L.3 107.8c-.2-2.5-.3-4.9-.3-7.4v-4.3c0-.8 0-1.6.2-2.4v-1.2Zm2.8 32.3 128.1-74s.1 0 .2.1c2.9 1.6 6.5 2.2 10.5 2h.6c1.9 0 2 1.2 2.1 2.8 0 .3.1.7.1 1.1s.1 1 .2 1.5c.5 3.2 1.7 6 3.7 8.2 1.7 1.9 3.9 3.4 6.7 4.4 2 .8 3.9 1.3 5.9 1.4 1.7 0 3.5 0 5.2-.4 2.2-.6 4.3-1.6 6.4-3.2.3-.2.5-.4.8-.6 3.3-2.4 3.4-2.2 5.4 1.2.4.7.9 1.4 1.4 2 .4.5.9 1 1.4 1.5.8.8 1.7 1.4 2.7 2 .3.2-1.4 1.5-1.1 1.7L25.7 167.5c-.4-.5-.8-.9-1.2-1.4-.1 0-.1-.1-.2-.2 0-.1-.1-.2-.2-.3-1.6-1.9-3.1-3.9-4.6-5.9-.4-.4-.7-.8-1-1.3-.3-.4-.6-.8-.9-1.3s-.6-.9-.9-1.4c-1.5-2.3-2.9-4.6-4.2-7-.5-.9-1-1.7-1.4-2.6l-.9-1.8c-3.1-6.3-5.5-12.8-7.1-19.6Zm41.2 59 156.4-90.3c.6 8.7.1 17.5-1.5 26.1L67.7 195.4c-6-2.1-11.8-4.8-17.4-7.9-2-1.2-4-2.4-6-3.7Z" class="cls-2"/>
  <path fill="url(#linear-gradient)" stroke-width="0" d="M184.4 74.7c-1-.6-1.9-1.2-2.7-2s-1-1-1.4-1.5c-.5-.6-1-1.3-1.4-2-2-3.4-2.1-3.6-5.4-1.2-.3.2-.5.4-.8.6-2.1 1.6-4.2 2.6-6.4 3.2-1.7.4-3.5.5-5.2.4-2 0-3.9-.6-5.9-1.4-2.8-1-5-2.5-6.7-4.4-2-2.2-3.2-5-3.7-8.2-.1-.5-.2-1-.2-1.5s-.1-.8-.1-1.1c-.1-1.6-.2-2.8-2.1-2.8h-.6c-4 .2-7.6-.4-10.5-2-1.8-1-3.5-2.3-4.8-4-.7-.9-1.4-1.9-2-3-.9-1.7-1.5-3.4-1.7-5.1v-.2c-.2-1.2-.2-2.4 0-3.6v-.6c.4-2.4 1.3-4.8 2.7-7.1.9-1.4 1-2.5-1-3.2-.3-.1-.7-.3-1-.4-3.6-1.6-6.4-3.8-8.2-6.8-.6-.9-1-2-1.4-3.1-4.3-.7-8.7-1-13.2-1-22.3 0-42.7 8.4-58.2 22.2-7 6.2-13.1 13.6-17.8 21.8-2.9 5-5.4 10.4-7.2 16-2.9 8.7-4.5 18.1-4.5 27.8s.8 14 2.5 20.6c2 8.3 5.2 16.1 9.4 23.3 3.3 5.6 7.2 10.9 11.6 15.6 2 2.2 4.1 4.2 6.3 6.1.7.6 1.3 1.1 2 1.7 3.1 2.6 6.3 4.9 9.7 7.1 9.3 5.8 19.7 9.9 30.8 11.9 2.7.5 5.4.8 8.1 1.1 1 .1 2 .2 3.1.2 1.4.1 2.9.1 4.3.1s3 0 4.4-.1c1 0 2-.1 3.1-.2 2.8-.2 5.5-.6 8.1-1.1 11.1-2 21.5-6.1 30.8-11.9 3.4-2.1 6.6-4.5 9.7-7h.1c.6-.5 1.3-1.1 1.9-1.6 2.2-2 4.3-4 6.4-6.2 4.4-4.7 8.2-10 11.5-15.6 4.2-7.2 7.4-15 9.4-23.3 1.6-6.6 2.5-13.5 2.5-20.6-.2-9.1-1.5-17.7-4.1-25.9Z"/>
  <path fill="url(#linear-gradient-2)" fill-rule="evenodd" stroke-width="0" d="M180.9 72.7c-.2-.5-.4-1-.5-1.5-.5-.6-1-1.3-1.4-2-2-3.4-2.1-3.6-5.4-1.2-.3.2-.5.4-.8.6-2.1 1.6-4.2 2.6-6.4 3.2-1.7.4-3.5.5-5.2.4-2 0-3.9-.6-5.9-1.4-2.8-1-5-2.5-6.7-4.4-2-2.2-3.2-5-3.7-8.2-.1-.5-.2-1-.2-1.5s-.1-.8-.1-1.1c-.1-1.6-.2-2.8-2.1-2.8h-.6c-4 .2-7.6-.4-10.5-2-1.8-1-3.5-2.3-4.8-4-.7-.9-1.4-1.9-2-3-.9-1.7-1.5-3.4-1.7-5.1v-.2c-.2-1.2-.2-2.4 0-3.6v-.6c.4-2.4 1.3-4.8 2.7-7.1.9-1.4 1-2.5-1-3.2-.3-.1-.7-.3-1-.4-3.6-1.6-6.4-3.8-8.2-6.8-4.8-.8-9.7-1.3-14.6-1.3-20.5 0-39.3 7.3-54 19.4-7.6 6.2-13.9 13.5-19 21.8-3 5-5.6 10.4-7.5 16-3 8.7-4.7 18.1-4.7 27.9s.9 13.9 2.5 20.5c2.1 8.3 5.4 16.2 9.7 23.3 2.7 4.5 5.9 8.8 9.4 12.7 2.5 2.9 5.3 5.5 8.2 8 .4.3.8.7 1.2 1 2.7 2.2 5.5 4.3 8.5 6.2 8.8 5.6 18.6 9.6 29.2 11.7 3.2.6 6.5 1.1 9.8 1.3.5 0 1 .1 1.5.1 1.7.1 3.4.2 5.1.2s3.5 0 5.2-.2c.5 0 1-.1 1.4-.1 3.3-.2 6.6-.7 9.8-1.3 10.5-2.1 20.4-6.1 29.1-11.7 3-1.9 5.8-4 8.5-6.2.4-.3.8-.7 1.2-1 2.9-2.5 5.7-5.2 8.2-8.1 3.5-3.9 6.6-8.2 9.3-12.7 4.3-7.2 7.6-15 9.7-23.3 1.6-6.6 2.5-13.4 2.5-20.5.2-9.7-1.5-19-4.5-27.8Z"/>
  <path d="M139 42.3v-.2c-.2-.8-.4-1.7-.3-2.6 0-3.2 1.6-5.9 3.9-7.6.3.2.6.5.9.6 1.7 1.3 1.2 2.3 0 3.4-1.9 1.9-3.4 3.9-4.3 6.2Zm-81.8 4.9c-.3 3.4-2 6.6-5 8.8-1.1.9-2.3 1.5-3.5 1.9-3 1.1-6.2.8-9-.3-.1-.8-.1-1.4 0-2.1.1-3.6 1.9-7.1 5-9.5 1.8-1.4 3.9-2.2 5.9-2.4-2.4-1.6-4-4.2-4.2-6.9 2.6-1.9 6.1-2.4 9.3-.9 2.9 1.4 4.8 4 5.3 6.9.3-.2.6-.5.9-.7.7-1.2 1.7-2.2 2.7-2.9.3 0 .7.3.9.5 2.3-1.4 4.8-2.6 7.2-3.6l.4-.2h-.3c-1.4-.2-2.8-.7-4.1-1.5-3.1-2-4.8-5.4-4.6-8.9 1.3-.7 2.9-1.1 4.4-1.1 1.8 0 3.6.4 5.2 1.4.2 0 .3.2.4.2 2.7 1.8 4.4 4.6 4.6 7.6v.2c3.1-1 6.3-1.8 9.6-2.4h.4c-.1 0-.2-.1-.4-.2-1.2-.5-2.4-1.3-3.3-2.3-2.3-2.7-2.8-6.2-1.8-9.1 3.1-.7 6.5.3 8.9 2.9 2 2.2 2.8 5.1 2.2 7.8v.2c4.2-.3 8.5-.2 12.8.2h.3c-.1 0-.2-.1-.3-.2-.9-.8-1.8-1.7-2.4-2.9-1.6-3-1.3-6.6.4-9.3 3.2.1 6.2 2 7.9 5 1.4 2.6 1.4 5.7.2 8.2v.2c-.1 0 0 0 0 0 3.6.8 7.2 1.7 10.7 3.1h.3s-.2 0-.2-.2c-.7-.9-1.2-2-1.5-3.2-.9-3.3.1-6.7 2.4-9 3.1.8 5.6 3.3 6.6 6.6.8 2.9 0 5.8-1.7 7.9 0 0 0 .2-.2.2h.2c3.1 1.5 6.2 3.3 9.2 5.2s-.1.5-.1.5c-.4 1.1-.7 2.3-.8 3.5-2.8-2-5.7-3.9-8.8-5.5-.2 2.2-1 4.3-2.4 6-2.3 2.6-5.8 3.4-8.9 2.7-.9-3-.2-6.5 2.2-9 .7-.8 1.7-1.5 2.6-2 .3 0 .5-.2.8-.3-3.2-1.4-6.6-2.5-10-3.4 0 .4.2.8.2 1.3.2 1.9-.2 3.9-1.3 5.7-1.7 3.1-5 4.6-8.2 4.5-1.5-2.8-1.6-6.3.2-9.3.6-1.1 1.5-2.1 2.5-2.7.3-.2.6-.5.9-.7-2.3-.4-4.5-.6-6.9-.7-1.9-.1-3.9-.1-5.8 0 1.5 2.3 1.9 5 1.2 7.6-.9 3.4-3.6 5.8-6.7 6.5-2.3-2.4-3.2-5.8-2.2-9.1.5-1.9 1.5-3.5 2.9-4.6-4.2.5-8.4 1.4-12.5 2.6 2 1.7 3.1 4.2 3 7.1 0 2.5-1 4.6-2.6 6.3-.7.6-1.4 1.3-2.2 1.7-1.2-.7-2.3-1.9-3.1-3.1-.8-1.5-1.4-3.2-1.3-5 0-2 .7-3.9 2-5.4-2.1.9-4.2 1.9-6.2 3 2.4 1.7 4.1 4.2 4.8 7.2l.3 1.3c.2 1.7.1 3.3-.3 4.9-.7 2.7-2.3 5.1-4.6 6.8-4-1.7-7-5.4-7.7-10-.2-1.6-.1-3.3.3-4.8 0-.3.2-.7.3-1-1.1.7-2.1 1.6-3.3 2.5Zm0-2.3v.4c.1 0 .4-.2.5-.4.1 0 .2-.1.3-.2-.3 0-.6.1-.9.2Zm81.1 7c.3 1.2.7 2.3 1.2 3.3-.2.1-.5.4-.8.5-2.9 1.8-6.5 1.8-9.3.2 0-3.1 1.5-6.3 4.5-8.1 1.2-.7 2.7-1.1 4.1-1.3-.2 1.7-.1 3.5.3 5.4Zm16 19.2c-.4 3.3 0 6.2 1.5 8.9-2.9-.3-5.5-2.1-7-4.6 1.2-2.1 3.1-3.6 5.5-4.3Zm-1.5-6.1.7.2c-1.1.9-2.4 1.5-3.8 1.9-3.3.8-6.7-.4-8.9-2.7.4-1.5 1.3-2.9 2.4-4 2.4 2.3 5.7 3.8 9.6 4.6Z" class="cls-2"/>
  <path fill="#965337" fill-rule="evenodd" stroke-width="0" d="M198.4 77.7c-.1.1-.3.2-.4.2-2.2.4-4 .2-6.2 0-3-.2-5.5-1-7.7-2.3-1.1-.6-2-1.3-2.9-2.1-.5-.5-1-1.1-1.5-1.6-.6-.7-1.1-1.4-1.5-2.1-.5-.8-.8-1.4-1.2-1.9-.2-.2-.3-.4-.4-.4-.2 0-.3 0-.5.2-.5.2-1.1.7-1.8 1.2-.3.2-.5.4-.8.6-2.2 1.7-4.4 2.7-6.7 3.4-1.8.4-3.7.5-5.5.4-2.1-.1-4.1-.6-6.2-1.5-3-1.1-5.3-2.7-7.1-4.7-2.1-2.3-3.4-5.3-3.9-8.7-.1-.6-.2-1.1-.2-1.7s0-.8-.1-1.1c0-.4 0-.8-.1-1.1 0-.3 0-.5-.3-.6-.2-.1-.4-.1-.7-.1h-.6c-4.2.2-8-.4-11-2.1-1.9-1.1-3.7-2.5-5.1-4.3-.7-.9-1.5-2-2.1-3.1-.8-1.6-1.4-3.2-1.7-4.8v-.8c-.4-1.3-.4-2.6-.2-3.8l.1-.6c.3-2.5 1.3-5.1 2.7-7.5.3-.4.5-.8.4-1.1 0-.1-.1-.2-.2-.3-.2-.1-.5-.3-.7-.3-.3-.1-.7-.3-1-.4-3.8-1.7-6.7-4-8.6-7.2-.6-1-1.1-2.1-1.5-3.3-.4-1.5-.7-3.1-.8-4.7-.1-2.2.1-4.4 0-6.7 0-.4-.2-1.1-.2-1.1 0-.3 0-.6.2-.8h.7c.3.6.3 1.2.3 1.9 0 2.2-.2 4.4 0 6.6 0 1.6.4 3.1.8 4.5.4 1.1.8 2.2 1.4 3.1 1.8 3 4.6 5.2 8.2 6.8.3.1.7.3 1 .4 2 .7 1.9 1.8 1 3.2-1.4 2.3-2.3 4.7-2.6 7.1v.6c-.2 1.2-.2 2.4 0 3.6 0 0 .2.2 0 .2.2 1.7.8 3.4 1.7 5.1.6 1.1 1.3 2.1 2 3 1.3 1.7 3 3 4.8 4 2.9 1.6 6.5 2.2 10.5 2h.6c1.9 0 2 1.2 2.1 2.8 0 .3.1.7.1 1.1s.1 1 .2 1.5c.5 3.2 1.7 6 3.7 8.2 1.7 1.9 3.9 3.4 6.7 4.4 2 .8 3.9 1.3 5.9 1.4 1.7 0 3.5 0 5.2-.4 2.2-.6 4.3-1.6 6.4-3.2.3-.2.5-.4.8-.6 3.3-2.4 3.4-2.2 5.4 1.2.4.7.9 1.4 1.4 2 .4.5.9 1 1.4 1.5.8.8 1.7 1.4 2.7 2 2.1 1.3 4.5 2 7.3 2.2 1.8.2 3.6 0 5.4-.3.5 0 1 .3 1.1.8v.3Z"/>
  <text fill="#80563e" font-family="Arial-BoldMT,Arial" font-size="60" font-weight="700" style="isolation:isolate" transform="rotate(15 -415.11 163.22)"><tspan x="0" y="0">{{annee}}</tspan></text>
</svg>
